<svg width="16" height="15" viewBox="0 0 16 15" fill="none" xmlns="http://www.w3.org/2000/svg">
<path fill-rule="evenodd" clip-rule="evenodd" d="M10.3706 11.0942C9.29398 11.8247 7.9704 12.2553 6.53952 12.2553C2.92783 12.2553 0 9.51187 0 6.12766C0 2.74345 2.92783 0 6.53952 0C10.1512 0 13.079 2.74345 13.079 6.12766C13.079 7.4336 12.643 8.64413 11.9 9.6384L15.2816 12.8746L13.7402 14.3189L10.3706 11.0942ZM10.8992 6.12759C10.8992 8.38373 8.94727 10.2127 6.53949 10.2127C4.13171 10.2127 2.17981 8.38373 2.17981 6.12759C2.17981 3.87144 4.13171 2.04248 6.53949 2.04248C8.94727 2.04248 10.8992 3.87144 10.8992 6.12759Z" fill="#333333"/>
</svg>
